<svg aria-hidden="true" style="position: absolute; width: 0; height: 0; overflow: hidden;" version="1.1" xmlns="http://www.w3.org/2000/svg" xmlns:xlink="http://www.w3.org/1999/xlink">
<defs>
<symbol id="icon-facebook" viewBox="0 0 17 32">
<path d="M15.4 18.514l0.855-5.567h-5.343v-3.613c0-1.523 0.746-3.008 3.139-3.008h2.429v-4.74c0 0-2.204-0.376-4.312-0.376-4.4 0-7.276 2.666-7.276 7.493v4.243h-4.891v5.567h4.891v13.458h6.020v-13.458h4.489z"></path>
</symbol>
<symbol id="icon-instagram" viewBox="0 0 32 32">
<path d="M16.007 8.162c-4.321 0-7.806 3.484-7.806 7.804s3.485 7.804 7.806 7.804 7.806-3.484 7.806-7.804c0-4.32-3.485-7.804-7.806-7.804zM16.007 21.040c-2.792 0-5.075-2.275-5.075-5.074s2.276-5.074 5.075-5.074c2.799 0 5.075 2.275 5.075 5.073s-2.283 5.074-5.075 5.074zM25.952 7.843c0 1.012-0.815 1.82-1.821 1.82-1.012 0-1.821-0.815-1.821-1.82s0.815-1.82 1.821-1.82c1.006 0 1.821 0.815 1.821 1.82zM31.122 9.691c-0.115-2.438-0.673-4.598-2.459-6.378-1.78-1.779-3.94-2.336-6.379-2.459-2.514-0.143-10.048-0.143-12.561 0-2.432 0.115-4.592 0.672-6.379 2.452s-2.337 3.939-2.459 6.378c-0.143 2.513-0.143 10.045 0 12.558 0.115 2.438 0.673 4.598 2.459 6.378s3.94 2.336 6.379 2.459c2.514 0.143 10.048 0.143 12.561 0 2.439-0.115 4.599-0.672 6.379-2.459 1.78-1.779 2.337-3.939 2.459-6.378 0.143-2.513 0.143-10.038 0-12.551zM27.875 24.938c-0.53 1.331-1.556 2.357-2.894 2.893-2.004 0.795-6.759 0.611-8.974 0.611s-6.977 0.177-8.974-0.611c-1.332-0.53-2.357-1.555-2.894-2.893-0.795-2.004-0.611-6.758-0.611-8.972s-0.177-6.975 0.611-8.972c0.53-1.331 1.556-2.357 2.894-2.893 2.004-0.795 6.76-0.611 8.974-0.611s6.977-0.177 8.974 0.611c1.331 0.53 2.357 1.555 2.894 2.893 0.795 2.004 0.611 6.758 0.611 8.972s0.183 6.975-0.611 8.972z"></path>
</symbol>
</defs>
</svg>
